<svg height="512" viewBox="0 0 512 512" width="512" xmlns="http://www.w3.org/2000/svg"><g id="Filled_outline" data-name="Filled outline"><path d="m312 288h96a48 48 0 0 0 48-48v-104h-144z" fill="#784533"/><path d="m488 328v128a32 32 0 0 1 -32 32h-208v-160a40 40 0 0 1 40-40h32a16 16 0 0 0 16-16v-56h64v56a16 16 0 0 0 16 16h32a40 40 0 0 1 40 40z" fill="#fdc8a2"/><path d="m400 208v48.51a72.1 72.1 0 0 1 -64 0v-48.51z" fill="#fdb683"/><path d="m424 288h24a40 40 0 0 1 40 40v128a32 32 0 0 1 -32 32h-208v-160a40 40 0 0 1 40-40h24l1.144 2.861a59.082 59.082 0 0 0 54.856 37.139 59.082 59.082 0 0 0 54.856-37.139z" fill="#de5540"/><path d="m444 136h-4v40h4a20 20 0 0 0 20-20 20 20 0 0 0 -20-20z" fill="#fdbf92"/><path d="m328 80h80a32 32 0 0 1 32 32v64a72 72 0 0 1 -72 72 72 72 0 0 1 -72-72v-64a32 32 0 0 1 32-32z" fill="#fdc8a2"/><path d="m332 136a12 12 0 1 0 12 12 12.013 12.013 0 0 0 -12-12z" fill="#844e3a"/><path d="m404 136a12 12 0 1 0 12 12 12.013 12.013 0 0 0 -12-12z" fill="#844e3a"/><path d="m368 192a8.009 8.009 0 0 1 -8-8h-16a24 24 0 0 0 48 0h-16a8.009 8.009 0 0 1 -8 8z" fill="#fcb079"/><path d="m328 120 56-40 56 56h16v-24a88 88 0 0 0 -88-88 88 88 0 0 0 -88 88v128a48 48 0 0 0 48 48z" fill="#844e3a"/><path d="m374.359 46.672c-47.477 1.827-67.332 39.749-68.154 41.363l14.242 7.291c.662-1.273 16.643-31.208 54.527-32.665z" fill="#784533"/><path d="m451.3 377.049-29.3-95.799a8 8 0 0 0 -10.176-5.209 8 8 0 0 0 -5.1 9.96l22.538 74h-116.806l15.044-72.751a8 8 0 0 0 -6.057-9.479h-.015a8 8 0 0 0 -9.58 6.111l-20.015 95.288a58.047 58.047 0 0 0 12.167 60.83v48h136v-48c16.438-17.022 20.2-42.189 11.3-62.951z" fill="#844e3a"/><path d="m184 104a80 80 0 1 0 -96.9 78.2l16.9 25.8 16.9-25.8a80.018 80.018 0 0 0 63.1-78.2z" fill="#ffb431"/><path d="m136 88v-2.053a21.973 21.973 0 0 0 -21.947-21.947h-2.053v-16h-16v16h-2.053a21.947 21.947 0 0 0 -6.94 42.768l28.927 9.643a5.947 5.947 0 0 1 -1.881 11.589h-20.106a5.954 5.954 0 0 1 -5.947-5.947v-2.053h-16v2.053a21.973 21.973 0 0 0 21.947 21.947h2.053v16h16v-16h2.053a21.947 21.947 0 0 0 6.94-42.768l-28.927-9.643a5.947 5.947 0 0 1 1.881-11.589h20.106a5.954 5.954 0 0 1 5.947 5.947v2.053z" fill="#ffc261"/><path d="m352 440v48h104a32 32 0 0 0 32-32v-16z" fill="#de5540"/><path d="m352 440-32-24h-56v40h32a42.246 42.246 0 0 0 40.985 32h15.015z" fill="#fdc8a2"/><path d="m304 488h-280v-128h176 32l72 88z" fill="#3ba5d3"/><path d="m24 360h176v128h-176z" fill="#4db6e4"/><path d="m40 240h128v64h-128z" fill="#4db6e4"/><g fill="#2d96c3"><path d="m128 264h16v16h-16z"/><path d="m96 264h16v16h-16z"/><path d="m64 264h16v16h-16z"/></g><path d="m48 384h16v16h-16z" fill="#5cc1ed"/><path d="m48 416h16v48h-16z" fill="#5cc1ed"/><path d="m88 304h32v56h-32z" fill="#dfdfdd"/><path d="m88 304h32v16h-32z" fill="#d5d5d3"/><path d="m24 496h432a40.045 40.045 0 0 0 40-40v-32h-16v32a24.028 24.028 0 0 1 -24 24h-96v-32h80a8 8 0 0 0 5.755-2.443c23.81-24.658 24.231-64.486 1.3-89.7l-19.015-57.034c.46-.925.908-1.863 1.333-2.823h18.627a32.036 32.036 0 0 1 32 32v80h16v-80a48.055 48.055 0 0 0 -48-48h-.823c.137-.135.28-.263.417-.4a55.6 55.6 0 0 0 16.406-39.6v-64.431a27.934 27.934 0 0 0 0-39.138v-24.431a96 96 0 0 0 -192 0v128a55.82 55.82 0 0 0 16.862 40h-.862a48.055 48.055 0 0 0 -48 48v16h16v-16a32.036 32.036 0 0 1 32-32h18.625c.721 1.633 1.509 3.221 2.343 4.765l-12.307 55.383a65.875 65.875 0 0 0 -16.345 50.271l-42.124-51.485a8 8 0 0 0 -6.192-2.934h-104v-40h40a8 8 0 0 0 8-8v-64a8 8 0 0 0 -8-8h-128a8 8 0 0 0 -8 8v64a8 8 0 0 0 8 8h40v40h-56a8 8 0 0 0 -8 8v128a8 8 0 0 0 8 8zm404.9-144h-114.927l7.693-34.62a66.924 66.924 0 0 0 94.939-2.268zm-92.9-215.3v-12.583l47.135-33.668 48.865 48.864v36.687a64 64 0 0 1 -96 55.426v-72.126a11.981 11.981 0 0 0 0-22.6zm8 135.3v-19.676a80.111 80.111 0 0 0 48-.007v19.683a23.984 23.984 0 0 0 17.974 23.221l.623 1.868a51.052 51.052 0 0 1 -84.612.858l.441-1.987c4.741 0 17.574-6.46 17.574-23.96zm104-32a39.991 39.991 0 0 1 -34.474 39.61 7.992 7.992 0 0 1 -5.526-7.61v-26.763a80.1 80.1 0 0 0 39.617-61.479c.128-.016.256-.03.383-.048zm8-84a12.02 12.02 0 0 1 -8 11.314v-22.628a12.02 12.02 0 0 1 8 11.314zm-168 84v-128a80 80 0 0 1 160 0v16.29a28.076 28.076 0 0 0 -4-.29h-.687l-53.656-53.657a8 8 0 0 0 -10.307-.853l-56 40a8 8 0 0 0 -3.35 6.51v159.2a40.071 40.071 0 0 1 -32-39.2zm19.552 128h128.9a50.1 50.1 0 0 1 0 64h-81.786l-29.866-22.4a8 8 0 0 0 -4.8-1.6h-23.361a49.958 49.958 0 0 1 10.913-40zm9.781 56 26.667 20v36h-7.02a33.976 33.976 0 0 1 -24.98-10.848v-21.152a8 8 0 0 0 -1.808-5.066l-15.492-18.934zm-109.333-56h20.209l67.791 82.855v29.145h-88zm-160-72v-48h112v48zm64 16v40h-16v-40zm-80 56h160v112h-160zm360-220a12 12 0 1 1 12 12 12.013 12.013 0 0 1 -12-12zm-48 36h16a8 8 0 0 0 16 0h16a24 24 0 0 1 -48 0zm-23.553-88.674-14.242-7.291c.822-1.614 20.677-39.536 68.154-41.363l.615 15.989c-37.884 1.457-53.865 31.392-54.527 32.665zm-232.447 24.674v2.053a5.954 5.954 0 0 0 5.947 5.947h20.106a5.947 5.947 0 0 0 1.881-11.589l-28.927-9.643a21.947 21.947 0 0 1 6.94-42.768h2.053v-16h16v16h2.053a21.973 21.973 0 0 1 21.947 21.947v2.053h-16v-2.053a5.954 5.954 0 0 0 -5.947-5.947h-20.106a5.947 5.947 0 0 0 -1.881 11.589l28.927 9.643a21.947 21.947 0 0 1 -6.94 42.768h-2.053v16h-16v-16h-2.053a21.973 21.973 0 0 1 -21.947-21.947v-2.053zm-52.168 39.645a88.031 88.031 0 0 1 -8.054-99.651l13.849 8.012a72.026 72.026 0 0 0 47.153 106.368 8 8 0 0 1 5.01 3.438l10.21 15.588 10.21-15.588a8 8 0 0 1 5.01-3.438 72 72 0 1 0 -68.915-118.343l-11.928-10.664a88 88 0 1 1 87.47 143.881l-15.155 23.135a8 8 0 0 1 -13.384 0l-15.155-23.135a88.389 88.389 0 0 1 -46.321-29.603zm92.168 104.355h16v16h-16zm-32 0h16v16h-16zm-32 0h16v16h-16zm-16 120h16v16h-16zm0 32h16v48h-16z"/></g></svg>