<svg xmlns="http://www.w3.org/2000/svg" height="596pt" version="1.1" viewBox="-4 1 596 596.718" width="596pt">
<g id="surface1">
<path d="M 89.910156 9.949219 L 547.609375 9.949219 C 564.097656 9.949219 577.460938 23.3125 577.460938 39.800781 L 577.460938 437.800781 C 577.460938 454.285156 564.097656 467.648438 547.609375 467.648438 L 89.910156 467.648438 C 73.425781 467.648438 60.0625 454.285156 60.0625 437.800781 L 60.0625 39.800781 C 60.0625 23.3125 73.425781 9.949219 89.910156 9.949219 Z M 89.910156 9.949219 " style=" stroke:none;fill-rule:nonzero;fill:rgb(26.27451%,59.607843%,81.960784%);fill-opacity:1;" />
<path d="M 547.609375 9.949219 L 527.710938 9.949219 L 74.449219 463.210938 C 79.09375 466.097656 84.449219 467.628906 89.910156 467.648438 L 547.609375 467.648438 C 564.097656 467.648438 577.460938 454.285156 577.460938 437.800781 L 577.460938 39.800781 C 577.460938 23.3125 564.097656 9.949219 547.609375 9.949219 Z M 547.609375 9.949219 " style=" stroke:none;fill-rule:nonzero;fill:rgb(24.313725%,54.901961%,78.039216%);fill-opacity:1;" />
<path d="M 89.910156 39.800781 L 109.8125 39.800781 L 109.8125 59.699219 L 89.910156 59.699219 Z M 89.910156 39.800781 " style=" stroke:none;fill-rule:nonzero;fill:rgb(16.470588%,49.803922%,74.901961%);fill-opacity:1;" />
<path d="M 129.710938 39.800781 L 149.609375 39.800781 L 149.609375 59.699219 L 129.710938 59.699219 Z M 129.710938 39.800781 " style=" stroke:none;fill-rule:nonzero;fill:rgb(16.470588%,49.803922%,74.901961%);fill-opacity:1;" />
<path d="M 169.511719 39.800781 L 189.410156 39.800781 L 189.410156 59.699219 L 169.511719 59.699219 Z M 169.511719 39.800781 " style=" stroke:none;fill-rule:nonzero;fill:rgb(16.470588%,49.803922%,74.901961%);fill-opacity:1;" />
<path d="M 89.910156 79.597656 L 547.609375 79.597656 L 547.609375 99.5 L 89.910156 99.5 Z M 89.910156 79.597656 " style=" stroke:none;fill-rule:nonzero;fill:rgb(16.470588%,49.803922%,74.901961%);fill-opacity:1;" />
<path d="M 219.261719 238.800781 L 99.863281 238.800781 L 99.863281 139.300781 L 149.609375 139.300781 L 169.511719 159.199219 L 219.261719 159.199219 Z M 219.261719 238.800781 " style=" stroke:none;fill-rule:nonzero;fill:rgb(99.215686%,65.490196%,18.431373%);fill-opacity:1;" />
<path d="M 378.460938 238.800781 L 259.0625 238.800781 L 259.0625 139.300781 L 308.8125 139.300781 L 328.710938 159.199219 L 378.460938 159.199219 Z M 378.460938 238.800781 " style=" stroke:none;fill-rule:nonzero;fill:rgb(99.215686%,65.490196%,18.431373%);fill-opacity:1;" />
<path d="M 537.660156 238.800781 L 418.261719 238.800781 L 418.261719 139.300781 L 468.011719 139.300781 L 487.910156 159.199219 L 537.660156 159.199219 Z M 537.660156 238.800781 " style=" stroke:none;fill-rule:nonzero;fill:rgb(99.215686%,65.490196%,18.431373%);fill-opacity:1;" />
<path d="M 537.660156 398 L 418.261719 398 L 418.261719 298.5 L 468.011719 298.5 L 487.910156 318.398438 L 537.660156 318.398438 Z M 537.660156 398 " style=" stroke:none;fill-rule:nonzero;fill:rgb(99.215686%,65.490196%,18.431373%);fill-opacity:1;" />
<path d="M 378.460938 398 L 259.0625 398 L 259.0625 298.5 L 308.8125 298.5 L 328.710938 318.398438 L 378.460938 318.398438 Z M 378.460938 398 " style=" stroke:none;fill-rule:nonzero;fill:rgb(99.215686%,65.490196%,18.431373%);fill-opacity:1;" />
<path d="M 130.886719 238.800781 L 219.261719 238.800781 L 219.261719 159.199219 L 187.074219 159.199219 Z M 130.886719 238.800781 " style=" stroke:none;fill-rule:nonzero;fill:rgb(100%,60%,27.058824%);fill-opacity:1;" />
<path d="M 290.085938 238.800781 L 378.460938 238.800781 L 378.460938 159.199219 L 346.273438 159.199219 Z M 290.085938 238.800781 " style=" stroke:none;fill-rule:nonzero;fill:rgb(100%,60%,27.058824%);fill-opacity:1;" />
<path d="M 448.109375 238.800781 L 536.488281 238.800781 L 536.488281 159.199219 L 504.296875 159.199219 Z M 448.109375 238.800781 " style=" stroke:none;fill-rule:nonzero;fill:rgb(100%,60%,27.058824%);fill-opacity:1;" />
<path d="M 449.285156 398 L 537.660156 398 L 537.660156 318.398438 L 505.472656 318.398438 Z M 449.285156 398 " style=" stroke:none;fill-rule:nonzero;fill:rgb(100%,60%,27.058824%);fill-opacity:1;" />
<path d="M 290.085938 398 L 378.460938 398 L 378.460938 318.398438 L 346.273438 318.398438 Z M 290.085938 398 " style=" stroke:none;fill-rule:nonzero;fill:rgb(100%,60%,27.058824%);fill-opacity:1;" />
<path d="M 308.8125 467.648438 L 308.8125 407.949219 L 275.050781 407.949219 C 272.273438 397.164062 267.996094 386.835938 262.335938 377.246094 L 286.214844 353.363281 L 243.996094 311.144531 L 220.117188 335.027344 C 210.527344 329.363281 200.199219 325.085938 189.410156 322.308594 L 189.410156 288.550781 L 129.710938 288.550781 L 129.710938 322.308594 C 118.925781 325.085938 108.597656 329.363281 99.007812 335.027344 L 75.125 311.144531 L 32.917969 353.375 L 56.796875 377.253906 C 51.136719 386.835938 46.847656 397.171875 44.070312 407.949219 L 10.3125 407.949219 L 10.3125 467.648438 L 44.070312 467.648438 C 46.847656 478.4375 51.125 488.765625 56.785156 498.355469 L 32.90625 522.234375 L 75.125 564.453125 L 99.003906 540.574219 C 108.597656 546.234375 118.925781 550.511719 129.710938 553.289062 L 129.710938 587.050781 L 189.410156 587.050781 L 189.410156 553.289062 C 200.195312 550.511719 210.523438 546.234375 220.117188 540.574219 L 243.996094 564.453125 L 286.214844 522.234375 L 262.335938 498.355469 C 267.996094 488.765625 272.273438 478.4375 275.050781 467.648438 Z M 159.5625 497.5 C 126.585938 497.5 99.859375 470.773438 99.859375 437.800781 C 99.859375 404.824219 126.585938 378.097656 159.5625 378.097656 C 192.535156 378.097656 219.261719 404.824219 219.261719 437.800781 C 219.261719 470.773438 192.535156 497.5 159.5625 497.5 Z M 159.5625 497.5 " style=" stroke:none;fill-rule:nonzero;fill:rgb(89.019608%,29.411765%,52.941176%);fill-opacity:1;" />
<path d="M 547.609375 0 L 89.910156 0 C 67.929688 0 50.109375 17.820312 50.109375 39.800781 L 50.109375 278.597656 L 70.011719 278.597656 L 70.011719 39.800781 C 70.011719 28.804688 78.917969 19.898438 89.910156 19.898438 L 547.609375 19.898438 C 558.605469 19.898438 567.511719 28.804688 567.511719 39.800781 L 567.511719 437.800781 C 567.511719 448.796875 558.605469 457.699219 547.609375 457.699219 L 338.660156 457.699219 L 338.660156 477.601562 L 547.609375 477.601562 C 569.589844 477.601562 587.410156 459.78125 587.410156 437.800781 L 587.410156 39.800781 C 587.410156 17.820312 569.589844 0 547.609375 0 Z M 547.609375 0 " style=" stroke:none;fill-rule:nonzero;fill:rgb(0%,0%,0%);fill-opacity:1;" />
<path d="M 89.910156 39.800781 L 109.8125 39.800781 L 109.8125 59.699219 L 89.910156 59.699219 Z M 89.910156 39.800781 " style=" stroke:none;fill-rule:nonzero;fill:rgb(0%,0%,0%);fill-opacity:1;" />
<path d="M 129.710938 39.800781 L 149.609375 39.800781 L 149.609375 59.699219 L 129.710938 59.699219 Z M 129.710938 39.800781 " style=" stroke:none;fill-rule:nonzero;fill:rgb(0%,0%,0%);fill-opacity:1;" />
<path d="M 169.511719 39.800781 L 189.410156 39.800781 L 189.410156 59.699219 L 169.511719 59.699219 Z M 169.511719 39.800781 " style=" stroke:none;fill-rule:nonzero;fill:rgb(0%,0%,0%);fill-opacity:1;" />
<path d="M 89.910156 79.597656 L 547.609375 79.597656 L 547.609375 99.5 L 89.910156 99.5 Z M 89.910156 79.597656 " style=" stroke:none;fill-rule:nonzero;fill:rgb(0%,0%,0%);fill-opacity:1;" />
<path d="M 89.910156 238.800781 C 89.910156 244.292969 94.367188 248.75 99.859375 248.75 L 219.261719 248.75 C 224.753906 248.75 229.210938 244.292969 229.210938 238.800781 L 229.210938 159.199219 C 229.210938 153.707031 224.753906 149.25 219.261719 149.25 L 173.628906 149.25 L 156.644531 132.265625 C 154.785156 130.394531 152.246094 129.351562 149.609375 129.351562 L 99.863281 129.351562 C 94.367188 129.351562 89.910156 133.808594 89.910156 139.300781 Z M 109.8125 149.25 L 145.492188 149.25 L 162.476562 166.234375 C 164.335938 168.105469 166.875 169.148438 169.511719 169.148438 L 209.3125 169.148438 L 209.3125 228.851562 L 109.8125 228.851562 Z M 109.8125 149.25 " style=" stroke:none;fill-rule:nonzero;fill:rgb(0%,0%,0%);fill-opacity:1;" />
<path d="M 388.410156 159.199219 C 388.410156 153.707031 383.953125 149.25 378.460938 149.25 L 332.832031 149.25 L 315.84375 132.265625 C 313.984375 130.394531 311.449219 129.351562 308.8125 129.351562 L 259.0625 129.351562 C 253.566406 129.351562 249.109375 133.808594 249.109375 139.300781 L 249.109375 238.800781 C 249.109375 244.292969 253.566406 248.75 259.0625 248.75 L 378.460938 248.75 C 383.953125 248.75 388.410156 244.292969 388.410156 238.800781 Z M 368.511719 228.851562 L 269.011719 228.851562 L 269.011719 149.25 L 304.691406 149.25 L 321.675781 166.234375 C 323.535156 168.105469 326.074219 169.152344 328.710938 169.152344 L 368.511719 169.152344 Z M 368.511719 228.851562 " style=" stroke:none;fill-rule:nonzero;fill:rgb(0%,0%,0%);fill-opacity:1;" />
<path d="M 547.609375 159.199219 C 547.609375 153.707031 543.152344 149.25 537.660156 149.25 L 492.03125 149.25 L 475.046875 132.265625 C 473.183594 130.394531 470.648438 129.351562 468.011719 129.351562 L 418.261719 129.351562 C 412.769531 129.351562 408.3125 133.808594 408.3125 139.300781 L 408.3125 238.800781 C 408.3125 244.292969 412.769531 248.75 418.261719 248.75 L 537.664062 248.75 C 543.15625 248.75 547.613281 244.292969 547.613281 238.800781 L 547.613281 159.199219 Z M 527.710938 228.851562 L 428.210938 228.851562 L 428.210938 149.25 L 463.890625 149.25 L 480.875 166.234375 C 482.738281 168.105469 485.273438 169.152344 487.910156 169.152344 L 527.710938 169.152344 Z M 527.710938 228.851562 " style=" stroke:none;fill-rule:nonzero;fill:rgb(0%,0%,0%);fill-opacity:1;" />
<path d="M 338.660156 388.050781 L 338.660156 407.949219 L 378.460938 407.949219 C 383.953125 407.949219 388.410156 403.492188 388.410156 398 L 388.410156 318.402344 C 388.410156 312.90625 383.953125 308.449219 378.460938 308.449219 L 332.832031 308.449219 L 315.84375 291.464844 C 313.984375 289.59375 311.449219 288.550781 308.8125 288.550781 L 278.960938 288.550781 L 278.960938 308.449219 L 304.691406 308.449219 L 321.675781 325.4375 C 323.539062 327.304688 326.074219 328.351562 328.710938 328.351562 L 368.511719 328.351562 L 368.511719 388.050781 Z M 338.660156 388.050781 " style=" stroke:none;fill-rule:nonzero;fill:rgb(0%,0%,0%);fill-opacity:1;" />
<path d="M 537.660156 308.449219 L 492.03125 308.449219 L 475.042969 291.464844 C 473.183594 289.59375 470.648438 288.550781 468.011719 288.550781 L 418.261719 288.550781 C 412.769531 288.550781 408.3125 293.007812 408.3125 298.5 L 408.3125 398 C 408.3125 403.492188 412.769531 407.949219 418.261719 407.949219 L 537.660156 407.949219 C 543.152344 407.949219 547.609375 403.492188 547.609375 398 L 547.609375 318.398438 C 547.609375 312.90625 543.152344 308.449219 537.660156 308.449219 Z M 527.710938 388.050781 L 428.210938 388.050781 L 428.210938 308.449219 L 463.890625 308.449219 L 480.875 325.433594 C 482.738281 327.304688 485.273438 328.351562 487.910156 328.351562 L 527.710938 328.351562 Z M 527.710938 388.050781 " style=" stroke:none;fill-rule:nonzero;fill:rgb(0%,0%,0%);fill-opacity:1;" />
<path d="M 36.609375 398 L 10.3125 398 C 4.820312 398 0.363281 402.457031 0.363281 407.949219 L 0.363281 467.648438 C 0.363281 473.140625 4.820312 477.597656 10.3125 477.597656 L 36.609375 477.597656 C 38.71875 484.136719 41.34375 490.484375 44.46875 496.605469 L 25.882812 515.191406 C 22 519.070312 22 525.378906 25.882812 529.261719 L 68.101562 571.480469 C 71.992188 575.359375 78.277344 575.359375 82.171875 571.480469 L 100.757812 552.890625 C 106.875 556.015625 113.222656 558.644531 119.761719 560.753906 L 119.761719 587.050781 C 119.761719 592.542969 124.21875 597 129.710938 597 L 189.410156 597 C 194.902344 597 199.363281 592.542969 199.363281 587.050781 L 199.363281 560.753906 C 205.898438 558.644531 212.246094 556.015625 218.367188 552.890625 L 236.953125 571.480469 C 240.832031 575.359375 247.140625 575.359375 251.023438 571.480469 L 293.242188 529.261719 C 297.121094 525.378906 297.121094 519.070312 293.242188 515.191406 L 274.652344 496.605469 C 277.777344 490.484375 280.40625 484.136719 282.515625 477.601562 L 308.8125 477.601562 C 314.304688 477.601562 318.761719 473.140625 318.761719 467.652344 L 318.761719 407.949219 C 318.761719 402.457031 314.304688 398 308.8125 398 L 282.515625 398 C 280.40625 391.464844 277.777344 385.117188 274.652344 378.996094 L 293.242188 360.410156 C 297.121094 356.527344 297.121094 350.21875 293.242188 346.339844 L 251.023438 304.121094 C 247.140625 300.242188 240.832031 300.242188 236.953125 304.121094 L 218.367188 322.707031 C 212.246094 319.582031 205.898438 316.957031 199.363281 314.847656 L 199.363281 288.550781 C 199.363281 283.058594 194.902344 278.601562 189.410156 278.601562 L 129.710938 278.601562 C 124.21875 278.601562 119.761719 283.058594 119.761719 288.550781 L 119.761719 314.847656 C 113.226562 316.957031 106.875 319.582031 100.757812 322.707031 L 82.171875 304.121094 C 78.277344 300.242188 71.992188 300.242188 68.101562 304.121094 L 25.882812 346.339844 C 22 350.21875 22 356.527344 25.882812 360.410156 L 44.46875 378.996094 C 43.644531 380.609375 42.847656 382.25 42.089844 383.902344 C 39.992188 388.488281 38.160156 393.195312 36.609375 398 Z M 53.710938 410.4375 C 56.25 400.554688 60.167969 391.082031 65.355469 382.296875 C 67.664062 378.386719 67.027344 373.421875 63.820312 370.207031 L 46.988281 353.375 L 75.132812 325.226562 L 91.96875 342.0625 C 95.183594 345.265625 100.148438 345.902344 104.058594 343.59375 C 112.84375 338.410156 122.316406 334.5 132.199219 331.953125 C 136.585938 330.816406 139.660156 326.855469 139.660156 322.320312 L 139.660156 298.5 L 179.460938 298.5 L 179.460938 322.320312 C 179.460938 326.855469 182.535156 330.816406 186.921875 331.953125 C 196.804688 334.5 206.277344 338.410156 215.0625 343.59375 C 218.972656 345.902344 223.9375 345.265625 227.152344 342.0625 L 243.984375 325.226562 L 272.132812 353.375 L 255.296875 370.207031 C 252.09375 373.421875 251.457031 378.386719 253.765625 382.296875 C 258.949219 391.085938 262.859375 400.558594 265.40625 410.4375 C 266.542969 414.824219 270.503906 417.898438 275.039062 417.898438 L 298.859375 417.898438 L 298.859375 457.699219 L 275.039062 457.699219 C 270.503906 457.699219 266.542969 460.773438 265.40625 465.160156 C 262.859375 475.042969 258.949219 484.515625 253.765625 493.300781 C 251.457031 497.210938 252.09375 502.175781 255.296875 505.390625 L 272.132812 522.226562 L 243.984375 550.371094 L 227.152344 533.539062 C 223.9375 530.335938 218.972656 529.695312 215.0625 532.003906 C 206.273438 537.1875 196.800781 541.097656 186.921875 543.648438 C 182.535156 544.78125 179.460938 548.742188 179.460938 553.277344 L 179.460938 577.097656 L 139.660156 577.097656 L 139.660156 553.277344 C 139.660156 548.742188 136.585938 544.78125 132.199219 543.648438 C 122.316406 541.097656 112.84375 537.191406 104.058594 532.003906 C 100.148438 529.695312 95.183594 530.332031 91.96875 533.539062 L 75.132812 550.371094 L 46.988281 522.226562 L 63.820312 505.390625 C 67.023438 502.175781 67.664062 497.210938 65.355469 493.300781 C 60.171875 484.515625 56.257812 475.042969 53.710938 465.160156 C 52.578125 460.773438 48.617188 457.699219 44.082031 457.699219 L 20.261719 457.699219 L 20.261719 417.898438 L 44.082031 417.898438 C 48.617188 417.898438 52.578125 414.824219 53.710938 410.4375 Z M 53.710938 410.4375 " style=" stroke:none;fill-rule:nonzero;fill:rgb(0%,0%,0%);fill-opacity:1;" />
<path d="M 159.5625 507.449219 C 198.027344 507.449219 229.210938 476.265625 229.210938 437.800781 C 229.210938 399.332031 198.027344 368.148438 159.5625 368.148438 C 121.09375 368.148438 89.910156 399.332031 89.910156 437.800781 C 89.949219 476.246094 121.113281 507.410156 159.5625 507.449219 Z M 159.5625 388.050781 C 187.03125 388.050781 209.308594 410.328125 209.308594 437.796875 C 209.308594 465.269531 187.03125 487.546875 159.5625 487.546875 C 132.089844 487.546875 109.8125 465.269531 109.8125 437.796875 C 109.839844 410.335938 132.097656 388.078125 159.5625 388.050781 Z M 159.5625 388.050781 " style=" stroke:none;fill-rule:nonzero;fill:rgb(0%,0%,0%);fill-opacity:1;" />
</g>
</svg>