<svg height="512pt" viewBox="0 -32 512 512" width="512pt" xmlns="http://www.w3.org/2000/svg"><path d="m512 75.496094c0-49.035156-131.898438-75.496094-256-75.496094-53.671875 0-104.902344 4.582031-148.15625 13.25-4.0625.8125-6.691406 4.765625-5.878906 8.828125s4.765625 6.699219 8.828125 5.878906c93.804687-18.800781 230.125-17.609375 318.941406 6.691407 32.519531 8.898437 67.265625 24.300781 67.265625 40.847656 0 49.28125-256.222656 84.21875-414.734375 40.847656-32.519531-8.898438-67.265625-24.300781-67.265625-40.847656 0-16.230469 33.707031-31.453125 65.25-40.289063 3.988281-1.117187 6.316406-5.257812 5.199219-9.246093-1.117188-3.988282-5.253907-6.316407-9.246094-5.199219-49.851563 13.964843-76.203125 32.890625-76.203125 54.734375v30.003906c0 45.949219 116.25 72.332031 233.5 75.226562v138.398438c0 4.140625 3.355469 7.5 7.5 7.5s7.5-3.359375 7.5-7.5v-138.15625c4.804688.039062 9.785156.042969 15 0v191.53125c0 4.136719-3.363281 7.5-7.5 7.5s-7.5-3.363281-7.5-7.5v-21c0-4.140625-3.355469-7.5-7.5-7.5s-7.5 3.359375-7.5 7.5v10.882812c-32.554688 6.90625-59.859375 28.042969-59.859375 47.289063 0 11.246094 9.480469 21.210937 26.695313 28.058594 15.027343 5.980469 34.847656 9.269531 55.804687 9.269531s40.773437-3.289062 55.804687-9.269531c17.214844-6.847657 26.695313-16.8125 26.695313-28.058594 0-9.746094-7.398437-20.722656-20.292969-30.113281-11.199218-8.15625-25.15625-14.167969-39.847656-17.234375v-181.59375c47.480469-1.15625 92.433594-5.960938 130.4375-13.960938 4.050781-.855469 6.644531-4.832031 5.792969-8.886719-.855469-4.054687-4.839844-6.644531-8.882813-5.792968-95.9375 20.199218-238.742187 18.855468-328.359375-7.082032-71.339843-20.652343-61.648437-41.464843-62.488281-42.585937 37.980469 31.722656 141.972656 48.570313 241 48.570313s203.019531-16.847657 241-48.570313v3.078125c0 4.941406-4.386719 22.355469-60.84375 39.023438-3.972656 1.171874-6.242188 5.34375-5.066406 9.316406 1.175781 3.992187 5.359375 6.238281 9.316406 5.066406 46.835938-13.824219 71.59375-32.292969 71.59375-53.40625zm-188.359375 334.175781c0 9.101563-26.296875 22.328125-67.5 22.328125-41.207031 0-67.5-13.226562-67.5-22.328125 0-8.03125 17.449219-25.402344 45.445313-32.058594 2.320312 9.953125 11.265624 17.386719 21.914062 17.386719 10.671875 0 19.628906-7.464844 21.929688-17.449219 28.15625 6.609375 45.710937 24.039063 45.710937 32.121094zm0 0"/></svg>